<svg xmlns="http://www.w3.org/2000/svg" width="210" height="52" viewBox="0 0 55.562 13.758"><g stroke-width=".265" aria-label="InstantCMS"><path fill="#fff" d="M2.635 9.65q-.117.032-.37.063-.244.032-.488.032-.243 0-.434-.042-.18-.032-.307-.127t-.19-.265q-.064-.169-.064-.444V3.279q.117-.021.37-.053.255-.042.488-.042.243 0 .423.042.19.032.317.127t.191.265q.063.169.063.444zM7.13 6.44q0-.328-.191-.476-.18-.159-.498-.159-.211 0-.423.053-.201.053-.35.159v3.672q-.105.032-.338.064-.222.031-.466.031-.233 0-.423-.031-.18-.032-.307-.127-.127-.096-.201-.254-.064-.17-.064-.434V5.763q0-.286.117-.466.127-.18.339-.328.36-.254.9-.413.55-.159 1.216-.159 1.196 0 1.842.53.645.518.645 1.45v3.312q-.106.032-.338.064-.223.031-.466.031-.233 0-.423-.031-.18-.032-.307-.127-.127-.096-.201-.254-.064-.17-.064-.434zM14.389 8.16q0 .804-.603 1.26t-1.778.454q-.445 0-.826-.063t-.656-.19q-.264-.138-.423-.34-.148-.2-.148-.475 0-.254.105-.424.106-.18.254-.296.307.17.699.307.402.127.92.127.329 0 .498-.095.18-.096.18-.254 0-.149-.127-.233-.127-.085-.423-.138l-.318-.063q-.92-.18-1.376-.561-.444-.392-.444-1.112 0-.391.17-.709.169-.317.475-.529.307-.211.73-.328.435-.116.953-.116.392 0 .73.063.35.053.604.17.254.116.402.306.148.18.148.434 0 .244-.095.424-.085.17-.222.285-.085-.052-.254-.105-.17-.064-.37-.106-.202-.053-.414-.085-.2-.032-.37-.032-.35 0-.54.085-.19.074-.19.243 0 .117.106.19.105.075.402.139l.328.074q1.016.232 1.44.645.433.402.433 1.048zM17.058 7.93q0 .275.17.392.18.116.497.116.158 0 .328-.021.17-.032.296-.074.095.116.159.264.074.138.074.339 0 .402-.307.656-.296.254-1.058.254-.932 0-1.44-.423-.497-.424-.497-1.376v-4.53q.116-.031.328-.063.222-.043.466-.043.465 0 .72.17.264.159.264.688v.677h1.386q.064.116.117.296.063.17.063.381 0 .37-.169.54-.159.159-.434.159h-.963zM21.698 8.55q.18 0 .392-.032.222-.042.328-.106v-.846l-.762.063q-.297.022-.487.127-.19.106-.19.318 0 .211.158.35.17.126.561.126zm-.085-4.16q.572 0 1.038.117.476.117.804.36.339.233.518.603.18.36.18.858v2.37q0 .275-.158.455-.149.17-.36.297-.688.412-1.937.412-.56 0-1.016-.105-.445-.106-.773-.318-.317-.212-.497-.54-.17-.328-.17-.762 0-.73.435-1.121.433-.392 1.344-.487l1.386-.148v-.075q0-.306-.275-.433-.265-.138-.773-.138-.402 0-.783.085t-.688.211q-.137-.095-.233-.285-.095-.202-.095-.413 0-.275.127-.434.138-.17.413-.286.307-.116.72-.17.423-.052.793-.052zM28.523 6.44q0-.328-.19-.476-.18-.159-.498-.159-.212 0-.423.053-.201.053-.35.159v3.672q-.105.032-.338.064-.222.031-.466.031-.233 0-.423-.031-.18-.032-.307-.127-.127-.096-.201-.254-.064-.17-.064-.434V5.763q0-.286.117-.466.127-.18.338-.328.36-.254.9-.413.55-.159 1.217-.159 1.196 0 1.842.53.645.518.645 1.45v3.312q-.106.032-.338.064-.223.031-.466.031-.233 0-.423-.031-.18-.032-.307-.127-.127-.096-.201-.254-.064-.17-.064-.434zM33.243 7.93q0 .275.17.392.18.116.497.116.159 0 .328-.021.17-.032.296-.074.095.116.159.264.074.138.074.339 0 .402-.307.656-.296.254-1.058.254-.932 0-1.44-.423-.497-.424-.497-1.376v-4.53q.116-.031.328-.063.222-.043.466-.043.465 0 .72.17.264.159.264.688v.677h1.386q.064.116.117.296.063.17.063.381 0 .37-.169.54-.159.159-.434.159h-.963z"/><path fill="#66d5f1" d="M39.089 4.57q-.815 0-1.249.497-.434.498-.434 1.408 0 .92.477 1.418.486.498 1.301.498.434 0 .73-.117.307-.116.583-.264.18.148.275.36.106.2.106.476 0 .434-.487.74-.477.297-1.46.297-.71 0-1.334-.201-.625-.201-1.09-.614-.466-.423-.741-1.058-.265-.646-.265-1.535 0-.825.254-1.45.265-.635.71-1.069.454-.434 1.058-.656t1.29-.222q.974 0 1.504.317.54.318.54.815 0 .275-.138.477-.138.2-.318.317-.275-.18-.592-.307-.307-.127-.72-.127zM46.351 8.12q-.138.116-.36.19-.212.064-.497.064-.381 0-.635-.095-.244-.095-.318-.328-.296-.932-.487-1.503-.19-.582-.296-1.016h-.053q-.032.624-.053 1.143l-.02.995q0 .486-.022.984-.01.497-.042 1.1-.138.054-.36.085-.222.043-.445.043-.465 0-.73-.149-.254-.148-.254-.54l.307-5.397q.085-.137.37-.296.286-.159.805-.159.56 0 .878.18.318.17.466.561.095.254.2.582.117.328.223.677.117.35.222.699.106.339.19.614h.054q.254-.89.508-1.715.254-.836.465-1.397.16-.084.403-.137.254-.064.56-.064.52 0 .847.159.328.148.381.434.043.211.085.656.053.434.106.984t.106 1.164q.052.614.095 1.186.053.56.084 1.037.032.466.043.72-.18.105-.381.148-.19.053-.498.053-.402 0-.677-.138t-.296-.54q-.064-1.153-.085-2.074-.01-.92-.042-1.545h-.053q-.106.413-.307 1.037-.201.624-.487 1.598zM52.109 7.15q-.466-.159-.847-.318-.38-.169-.656-.402-.275-.233-.434-.55-.148-.328-.148-.794 0-.9.688-1.44.698-.539 1.947-.539.455 0 .847.064.392.063.667.2.285.128.444.34.159.2.159.476t-.127.476q-.127.19-.307.328-.233-.148-.624-.254-.392-.116-.858-.116-.476 0-.698.137-.222.127-.222.328 0 .159.137.265.138.095.413.18l.56.18q.996.317 1.525.815.54.486.54 1.333 0 .9-.71 1.46-.709.55-2.084.55-.487 0-.91-.084-.413-.074-.73-.222-.308-.159-.488-.381-.169-.233-.169-.53 0-.306.18-.518.18-.222.392-.338.296.232.72.402.433.17.941.17.519 0 .73-.16t.212-.37-.17-.318q-.169-.116-.476-.222z"/></g></svg>