<?xml version="1.0" encoding="UTF-8"?>
<svg width="210" height="52" version="1.1" viewBox="0 0 55.562499 13.758334" xmlns="http://www.w3.org/2000/svg" xmlns:cc="http://creativecommons.org/ns#" xmlns:dc="http://purl.org/dc/elements/1.1/" xmlns:rdf="http://www.w3.org/1999/02/22-rdf-syntax-ns#">
<g transform="translate(0 -283.24)">
<g stroke-width=".26458" aria-label="InstantCMS">
<path d="m2.6345 292.89q-0.11642 0.0317-0.37042 0.0635-0.24342 0.0318-0.48683 0.0318-0.24342 0-0.43392-0.0423-0.17992-0.0317-0.30692-0.127-0.127-0.0953-0.1905-0.26458-0.0635-0.16934-0.0635-0.4445v-5.588q0.11642-0.0212 0.37042-0.0529 0.254-0.0423 0.48683-0.0423 0.24342 0 0.42333 0.0423 0.1905 0.0317 0.3175 0.127t0.1905 0.26458q0.0635 0.16934 0.0635 0.4445z" fill="#fff"/>
<path d="m7.1291 289.68q0-0.32808-0.1905-0.47625-0.17992-0.15875-0.49742-0.15875-0.21167 0-0.42333 0.0529-0.20108 0.0529-0.34925 0.15875v3.6724q-0.10583 0.0317-0.33867 0.0635-0.22225 0.0317-0.46567 0.0317-0.23283 0-0.42333-0.0317-0.17992-0.0318-0.30692-0.127-0.127-0.0953-0.20108-0.254-0.0635-0.16933-0.0635-0.43391v-3.175q0-0.28575 0.11642-0.46567 0.127-0.17992 0.33867-0.32808 0.35983-0.254 0.89958-0.41275 0.55033-0.15875 1.2171-0.15875 1.1959 0 1.8415 0.52916 0.64558 0.51859 0.64558 1.4499v3.3126q-0.10583 0.0317-0.33867 0.0635-0.22225 0.0317-0.46567 0.0317-0.23283 0-0.42333-0.0317-0.17992-0.0318-0.30692-0.127-0.127-0.0953-0.20108-0.254-0.0635-0.16933-0.0635-0.43391z" fill="#fff"/>
<path d="m14.389 291.4q0 0.80434-0.60325 1.2594t-1.778 0.45508q-0.4445 0-0.8255-0.0635t-0.65617-0.1905q-0.26458-0.13758-0.42333-0.33866-0.14817-0.20109-0.14817-0.47625 0-0.254 0.10583-0.42334 0.10583-0.17991 0.254-0.29633 0.30692 0.16933 0.6985 0.30692 0.40217 0.127 0.92075 0.127 0.32808 0 0.49742-0.0953 0.17992-0.0952 0.17992-0.254 0-0.14817-0.127-0.23284-0.127-0.0847-0.42333-0.13758l-0.3175-0.0635q-0.92075-0.17992-1.3758-0.56092-0.4445-0.39158-0.4445-1.1112 0-0.39158 0.16933-0.70908 0.16933-0.3175 0.47625-0.52917 0.30692-0.21166 0.73025-0.32808 0.43392-0.11642 0.9525-0.11642 0.39158 0 0.73025 0.0635 0.34925 0.0529 0.60325 0.16934 0.254 0.11641 0.40217 0.30691 0.14817 0.17992 0.14817 0.43392 0 0.24342-0.09525 0.42333-0.08467 0.16934-0.22225 0.28575-0.08467-0.0529-0.254-0.10583-0.16933-0.0635-0.37042-0.10583-0.20108-0.0529-0.41275-0.0847-0.20108-0.0318-0.37042-0.0318-0.34925 0-0.53975 0.0847-0.1905 0.0741-0.1905 0.24341 0 0.11642 0.10583 0.1905 0.10583 0.0741 0.40217 0.13759l0.32808 0.0741q1.016 0.23283 1.4393 0.64558 0.43392 0.40217 0.43392 1.0478z" fill="#fff"/>
<path d="m17.058 291.17q0 0.27517 0.16933 0.39158 0.17992 0.11642 0.49742 0.11642 0.15875 0 0.32808-0.0212 0.16933-0.0317 0.29633-0.0741 0.09525 0.11642 0.15875 0.26458 0.07408 0.13759 0.07408 0.33867 0 0.40217-0.30692 0.65617-0.29633 0.254-1.0583 0.254-0.93133 0-1.4393-0.42334-0.49742-0.42333-0.49742-1.3758v-4.5297q0.11642-0.0317 0.32808-0.0635 0.22225-0.0423 0.46567-0.0423 0.46567 0 0.71967 0.16933 0.26458 0.15875 0.26458 0.68792v0.67733h1.3864q0.0635 0.11642 0.11642 0.29634 0.0635 0.16933 0.0635 0.381 0 0.37041-0.16933 0.53975-0.15875 0.15875-0.43392 0.15875h-0.96308z" fill="#fff"/>
<path d="m21.698 291.79q0.17992 0 0.39158-0.0317 0.22225-0.0423 0.32808-0.10584v-0.84666l-0.762 0.0635q-0.29633 0.0212-0.48683 0.127-0.1905 0.10583-0.1905 0.3175 0 0.21166 0.15875 0.34925 0.16933 0.127 0.56092 0.127zm-0.08467-4.1592q0.5715 0 1.0372 0.11641 0.47625 0.11642 0.80433 0.35984 0.33867 0.23283 0.51858 0.60325 0.17992 0.35983 0.17992 0.85725v2.3707q0 0.27517-0.15875 0.45509-0.14817 0.16933-0.35983 0.29633-0.68792 0.41275-1.9368 0.41275-0.56092 0-1.016-0.10583-0.4445-0.10584-0.77258-0.3175-0.3175-0.21167-0.49742-0.53975-0.16933-0.32809-0.16933-0.762 0-0.73025 0.43392-1.1218 0.43392-0.39158 1.3441-0.48683l1.3864-0.14817v-0.0741q0-0.30692-0.27517-0.43392-0.26458-0.13758-0.77258-0.13758-0.40217 0-0.78317 0.0847t-0.68792 0.21166q-0.13758-0.0952-0.23283-0.28575-0.09525-0.20108-0.09525-0.41275 0-0.27516 0.127-0.43391 0.13758-0.16934 0.41275-0.28575 0.30692-0.11642 0.71967-0.16934 0.42333-0.0529 0.79375-0.0529z" fill="#fff"/>
<path d="m28.523 289.68q0-0.32808-0.1905-0.47625-0.17992-0.15875-0.49742-0.15875-0.21167 0-0.42333 0.0529-0.20108 0.0529-0.34925 0.15875v3.6724q-0.10583 0.0317-0.33867 0.0635-0.22225 0.0317-0.46567 0.0317-0.23283 0-0.42333-0.0317-0.17992-0.0318-0.30692-0.127-0.127-0.0953-0.20108-0.254-0.0635-0.16933-0.0635-0.43391v-3.175q0-0.28575 0.11642-0.46567 0.127-0.17992 0.33867-0.32808 0.35983-0.254 0.89958-0.41275 0.55033-0.15875 1.2171-0.15875 1.1959 0 1.8415 0.52916 0.64558 0.51859 0.64558 1.4499v3.3126q-0.10583 0.0317-0.33867 0.0635-0.22225 0.0317-0.46567 0.0317-0.23283 0-0.42333-0.0317-0.17992-0.0318-0.30692-0.127-0.127-0.0953-0.20108-0.254-0.0635-0.16933-0.0635-0.43391z" fill="#fff"/>
<path d="m33.243 291.17q0 0.27517 0.16933 0.39158 0.17992 0.11642 0.49742 0.11642 0.15875 0 0.32808-0.0212 0.16933-0.0317 0.29633-0.0741 0.09525 0.11642 0.15875 0.26458 0.07408 0.13759 0.07408 0.33867 0 0.40217-0.30692 0.65617-0.29633 0.254-1.0583 0.254-0.93133 0-1.4393-0.42334-0.49742-0.42333-0.49742-1.3758v-4.5297q0.11642-0.0317 0.32808-0.0635 0.22225-0.0423 0.46567-0.0423 0.46567 0 0.71967 0.16933 0.26458 0.15875 0.26458 0.68792v0.67733h1.3864q0.0635 0.11642 0.11642 0.29634 0.0635 0.16933 0.0635 0.381 0 0.37041-0.16933 0.53975-0.15875 0.15875-0.43392 0.15875h-0.96308z" fill="#fff"/>
<path d="m39.089 287.81q-0.81492 0-1.2488 0.49742-0.43392 0.49742-0.43392 1.4076 0 0.92075 0.47625 1.4182 0.48683 0.49742 1.3017 0.49742 0.43392 0 0.73025-0.11642 0.30692-0.11642 0.58208-0.26458 0.17992 0.14816 0.27517 0.35983 0.10583 0.20108 0.10583 0.47625 0 0.43392-0.48683 0.74083-0.47625 0.29634-1.4605 0.29634-0.70908 0-1.3335-0.20109-0.62442-0.20108-1.0901-0.61383-0.46567-0.42333-0.74083-1.0583-0.26458-0.64559-0.26458-1.5346 0-0.8255 0.254-1.4499 0.26458-0.635 0.70908-1.0689 0.45508-0.43392 1.0583-0.65617t1.2912-0.22225q0.97367 0 1.5028 0.3175 0.53975 0.3175 0.53975 0.81492 0 0.27517-0.13758 0.47625-0.13758 0.20108-0.3175 0.3175-0.27517-0.17992-0.59267-0.30692-0.30692-0.127-0.71967-0.127z" fill="#f3ac51"/>
<path d="m46.351 291.36q-0.13758 0.11642-0.35983 0.1905-0.21167 0.0635-0.49742 0.0635-0.381 0-0.635-0.0953-0.24342-0.0952-0.3175-0.32808-0.29633-0.93134-0.48683-1.5028-0.1905-0.58208-0.29633-1.016h-0.05292q-0.03175 0.62442-0.05292 1.143-0.01058 0.508-0.02117 0.99484 0 0.48683-0.02117 0.98425-0.01058 0.49741-0.04233 1.1007-0.13758 0.0529-0.35983 0.0847-0.22225 0.0423-0.4445 0.0423-0.46567 0-0.73025-0.14816-0.254-0.14817-0.254-0.53975l0.30692-5.3975q0.08467-0.13759 0.37042-0.29634 0.28575-0.15875 0.80433-0.15875 0.56092 0 0.87842 0.17992 0.3175 0.16933 0.46567 0.56092 0.09525 0.254 0.20108 0.58208 0.11642 0.32808 0.22225 0.67733 0.11642 0.34925 0.22225 0.6985 0.10583 0.33867 0.1905 0.61384h0.05292q0.254-0.889 0.508-1.7145 0.254-0.83609 0.46567-1.397 0.15875-0.0847 0.40217-0.13759 0.254-0.0635 0.56092-0.0635 0.51858 0 0.84667 0.15875 0.32808 0.14817 0.381 0.43392 0.04233 0.21167 0.08467 0.65617 0.05292 0.43391 0.10583 0.98425 0.05292 0.55033 0.10583 1.1642 0.05292 0.61384 0.09525 1.1853 0.05292 0.56091 0.08467 1.0372 0.03175 0.46567 0.04233 0.71967-0.17992 0.10583-0.381 0.14817-0.1905 0.0529-0.49742 0.0529-0.40217 0-0.67733-0.13758-0.27517-0.13758-0.29633-0.53975-0.0635-1.1536-0.08467-2.0743-0.01058-0.92075-0.04233-1.5452h-0.05292q-0.10583 0.41275-0.30692 1.0372-0.20108 0.62441-0.48683 1.5981z" fill="#f3ac51"/>
<path d="m52.109 290.39q-0.46567-0.15875-0.84667-0.3175-0.381-0.16933-0.65617-0.40216-0.27517-0.23284-0.43392-0.55034-0.14817-0.32808-0.14817-0.79375 0-0.89958 0.68792-1.4393 0.6985-0.53975 1.9473-0.53975 0.45508 0 0.84667 0.0635 0.39158 0.0635 0.66675 0.20108 0.28575 0.127 0.4445 0.33867 0.15875 0.20108 0.15875 0.47625t-0.127 0.47625q-0.127 0.1905-0.30692 0.32808-0.23283-0.14816-0.62442-0.254-0.39158-0.11641-0.85725-0.11641-0.47625 0-0.6985 0.13758-0.22225 0.127-0.22225 0.32808 0 0.15875 0.13758 0.26459 0.13758 0.0953 0.41275 0.17991l0.56092 0.17992q0.99483 0.3175 1.524 0.81492 0.53975 0.48683 0.53975 1.3335 0 0.89958-0.70908 1.4605-0.70908 0.55033-2.0849 0.55033-0.48683 0-0.91017-0.0847-0.41275-0.0741-0.73025-0.22225-0.30692-0.15875-0.48683-0.381-0.16933-0.23283-0.16933-0.52916 0-0.30692 0.17992-0.51859 0.17992-0.22225 0.39158-0.33866 0.29633 0.23283 0.71967 0.40216 0.43392 0.16934 0.94192 0.16934 0.51858 0 0.73025-0.15875t0.21167-0.37042-0.16933-0.3175q-0.16933-0.11642-0.47625-0.22225z" fill="#f3ac51"/>
</g>
</g>
</svg>
