<?xml version="1.0" encoding="UTF-8" standalone="no"?>
<svg
   xmlns:dc="http://purl.org/dc/elements/1.1/"
   xmlns:cc="http://creativecommons.org/ns#"
   xmlns:rdf="http://www.w3.org/1999/02/22-rdf-syntax-ns#"
   xmlns:svg="http://www.w3.org/2000/svg"
   xmlns="http://www.w3.org/2000/svg"
   id="svg5"
   version="1.1"
   viewBox="0 0 220 220"
   height="52"
   width="52">
  <g
     transform="translate(-139.15797,-691.49406)"
     id="g8"
     style="fill:#FFF;stroke:none;stroke-opacity:1">
    <path
       id="path2"
       d="m 358.41435,691.49433 a 2.462,2.462 0 0 0 -1.7766,0.71991 2.462,2.462 0 0 0 -0.45258,2.8523 l -4.4437,4.4437 c -7.4842,2.4304 -44.035,14.754 -61.222,29.083 -18.152,15.133 -42.419,44.599 -61.231,59.113 l -24.549,7.2286 c 5.5805,-9.6894 8.2454,-20.185 8.2454,-20.185 0,0 -12.886,3.1428 -23.239,10.001 -9.119,6.0407 -28.758,25.3 -33.535,30.026 l -1.4946,-1.4946 -3.869,3.869 2.6923,2.6923 c -0.61622,0.99132 -7.0276,11.315 -10.02,17.076 -2.2672,4.3652 -4.3616,11.658 -4.3616,11.658 0,0 7.2924,-2.0944 11.658,-4.3616 5.7611,-2.9923 16.085,-9.4037 17.076,-10.02 l 2.6923,2.6923 3.869,-3.869 -1.503,-1.503 c 0.94052,-0.95587 1.5333,-1.5478 3.688,-3.7743 l 12.498,2.3724 c 16.957,3.2194 5.0444,21.217 8.4559,24.629 3.4114,3.4114 21.411,-8.5009 24.631,8.4559 l 2.3702,12.479 c -2.2274,2.1636 -2.8208,2.7595 -3.7764,3.7027 l -1.4504,-1.4504 -3.8711,3.8711 2.6923,2.6923 c -0.6171,0.99272 -7.0258,11.315 -10.018,17.076 -2.2672,4.3652 -4.3616,11.656 -4.3616,11.656 0,0 7.2903,-2.0944 11.656,-4.3616 5.7608,-2.9921 16.085,-9.4008 17.078,-10.018 l 2.6902,2.6902 3.869,-3.869 -1.5451,-1.5451 c 4.7182,-4.7879 23.94,-24.464 29.961,-33.602 6.8353,-10.376 10.068,-23.17 10.068,-23.17 0,0 -10.489,2.5697 -20.145,8.1085 l 7.1887,-24.412 c 14.514,-18.812 43.98,-43.078 59.113,-61.231 14.329,-17.187 26.653,-53.738 29.083,-61.222 l 4.4437,-4.4437 a 2.462,2.462 0 0 0 2.8523,-0.45257 2.462,2.462 0 0 0 0,-3.4817 2.462,2.462 0 0 0 -1.7051,-0.71991 z m -55.872,46.521 a 11.951,11.951 0 0 1 8.277,3.5007 11.951,11.951 0 0 1 0,16.901 11.951,11.951 0 0 1 -16.903,0 11.951,11.951 0 0 1 0,-16.901 11.951,11.951 0 0 1 8.6264,-3.5007 z m -146.42,84.409 9.1905,9.1905 c -1.406,0.8014 -6.2265,3.5409 -9.6831,5.3362 -2.8977,1.505 -8.6558,3.8122 -8.6558,3.8122 0,0 2.3093,-5.7582 3.8143,-8.6559 1.7953,-3.4566 4.533,-8.2771 5.3341,-9.6831 z m 64.649,64.652 9.1884,9.1863 c -1.4072,0.80206 -6.2251,3.5412 -9.681,5.3362 -2.8977,1.505 -8.6558,3.8122 -8.6559,3.8122 0,0 2.3072,-5.756 3.8122,-8.6537 1.7947,-3.4554 4.5335,-8.2726 5.3362,-9.681 z" />
  </g>
</svg>
