<svg xmlns="http://www.w3.org/2000/svg" width="52" height="52" viewBox="0 0 220 220"><path fill="#fff" d="M219.256 0a2.462 2.462 0 0 0-1.776.72 2.462 2.462 0 0 0-.453 2.852l-4.443 4.444c-7.485 2.43-44.036 14.754-61.223 29.083-18.152 15.133-42.419 44.6-61.23 59.113l-24.55 7.229c5.581-9.69 8.246-20.185 8.246-20.185s-12.886 3.143-23.24 10c-9.118 6.041-28.757 25.3-33.534 30.027l-1.495-1.495-3.869 3.87 2.693 2.691c-.617.992-7.028 11.315-10.02 17.076C2.094 149.791 0 157.083 0 157.083s7.292-2.094 11.658-4.361c5.761-2.992 16.085-9.404 17.076-10.02l2.692 2.692 3.87-3.869-1.504-1.503c.94-.956 1.534-1.548 3.688-3.774l12.498 2.372c16.957 3.22 5.045 21.217 8.456 24.63 3.412 3.41 21.411-8.502 24.631 8.455l2.37 12.48c-2.227 2.163-2.82 2.759-3.776 3.702l-1.45-1.45-3.872 3.87L79.03 193c-.617.993-7.026 11.315-10.018 17.076-2.267 4.365-4.362 11.656-4.362 11.656s7.29-2.095 11.656-4.362c5.761-2.992 16.085-9.4 17.078-10.018l2.69 2.69 3.87-3.869-1.546-1.545c4.718-4.788 23.94-24.464 29.961-33.602 6.836-10.376 10.068-23.17 10.068-23.17s-10.489 2.57-20.145 8.109l7.189-24.412c14.514-18.812 43.98-43.078 59.113-61.231 14.329-17.187 26.653-53.738 29.083-61.222l4.444-4.444a2.462 2.462 0 0 0 2.852-.452 2.462 2.462 0 0 0 0-3.482 2.462 2.462 0 0 0-1.705-.72zm-55.872 46.521a11.951 11.951 0 0 1 8.277 3.501 11.951 11.951 0 0 1 0 16.901 11.951 11.951 0 0 1-16.903 0 11.951 11.951 0 0 1 0-16.901 11.951 11.951 0 0 1 8.627-3.5zm-146.42 84.41 9.19 9.19c-1.405.801-6.226 3.54-9.682 5.336-2.898 1.505-8.656 3.812-8.656 3.812s2.31-5.758 3.814-8.656c1.796-3.456 4.533-8.277 5.334-9.683zm64.65 64.651 9.188 9.187c-1.407.802-6.225 3.54-9.681 5.336-2.898 1.505-8.656 3.812-8.656 3.812s2.307-5.756 3.812-8.654c1.795-3.455 4.534-8.272 5.336-9.68z"/></svg>