<?xml version="1.0" encoding="UTF-8" standalone="no"?>
<svg
   xmlns:dc="http://purl.org/dc/elements/1.1/"
   xmlns:cc="http://creativecommons.org/ns#"
   xmlns:rdf="http://www.w3.org/1999/02/22-rdf-syntax-ns#"
   xmlns:svg="http://www.w3.org/2000/svg"
   xmlns="http://www.w3.org/2000/svg"
   xmlns:sodipodi="http://sodipodi.sourceforge.net/DTD/sodipodi-0.dtd"
   xmlns:inkscape="http://www.inkscape.org/namespaces/inkscape"
   version="1.1"
   id="Capa_1"
   x="0px"
   y="0px"
   width="16px"
   height="16px"
   viewBox="0 0 36.447 36.447"
   style="enable-background:new 0 0 16 16;"
   xml:space="preserve">
<g
   id="g30">
	<g
   id="g28"
   style="fill:#808080">
		<path
   d="M30.224,3.948h-1.098V2.75c0-1.517-1.197-2.75-2.67-2.75c-1.474,0-2.67,1.233-2.67,2.75v1.197h-2.74V2.75    c0-1.517-1.197-2.75-2.67-2.75c-1.473,0-2.67,1.233-2.67,2.75v1.197h-2.74V2.75c0-1.517-1.197-2.75-2.67-2.75    c-1.473,0-2.67,1.233-2.67,2.75v1.197H6.224c-2.343,0-4.25,1.907-4.25,4.25v24c0,2.343,1.907,4.25,4.25,4.25h24    c2.344,0,4.25-1.907,4.25-4.25v-24C34.474,5.855,32.567,3.948,30.224,3.948z M25.286,2.75c0-0.689,0.525-1.25,1.17-1.25    c0.646,0,1.17,0.561,1.17,1.25v4.896c0,0.689-0.524,1.25-1.17,1.25c-0.645,0-1.17-0.561-1.17-1.25V2.75z M17.206,2.75    c0-0.689,0.525-1.25,1.17-1.25s1.17,0.561,1.17,1.25v4.896c0,0.689-0.525,1.25-1.17,1.25s-1.17-0.561-1.17-1.25V2.75z M9.125,2.75    c0-0.689,0.525-1.25,1.17-1.25s1.17,0.561,1.17,1.25v4.896c0,0.689-0.525,1.25-1.17,1.25s-1.17-0.561-1.17-1.25V2.75z     M31.974,32.198c0,0.965-0.785,1.75-1.75,1.75h-24c-0.965,0-1.75-0.785-1.75-1.75v-22h27.5V32.198z"
   id="path2"
   style="fill:#808080" />
		<rect
   x="6.724"
   y="14.626"
   width="4.595"
   height="4.089"
   id="rect4"
   style="fill:#808080" />
		<rect
   x="12.857"
   y="14.626"
   width="4.596"
   height="4.089"
   id="rect6"
   style="fill:#808080" />
		<rect
   x="18.995"
   y="14.626"
   width="4.595"
   height="4.089"
   id="rect8"
   style="fill:#808080" />
		<rect
   x="25.128"
   y="14.626"
   width="4.596"
   height="4.089"
   id="rect10"
   style="fill:#808080" />
		<rect
   x="6.724"
   y="20.084"
   width="4.595"
   height="4.086"
   id="rect12"
   style="fill:#808080" />
		<rect
   x="12.857"
   y="20.084"
   width="4.596"
   height="4.086"
   id="rect14"
   style="fill:#808080" />
		<rect
   x="18.995"
   y="20.084"
   width="4.595"
   height="4.086"
   id="rect16"
   style="fill:#808080" />
		<rect
   x="25.128"
   y="20.084"
   width="4.596"
   height="4.086"
   id="rect18"
   style="fill:#808080" />
		<rect
   x="6.724"
   y="25.54"
   width="4.595"
   height="4.086"
   id="rect20"
   style="fill:#808080" />
		<rect
   x="12.857"
   y="25.54"
   width="4.596"
   height="4.086"
   id="rect22"
   style="fill:#808080" />
		<rect
   x="18.995"
   y="25.54"
   width="4.595"
   height="4.086"
   id="rect24"
   style="fill:#808080" />
		<rect
   x="25.128"
   y="25.54"
   width="4.596"
   height="4.086"
   id="rect26"
   style="fill:#808080" />
	</g>
</g>
</svg>
