<?xml version="1.0" encoding="UTF-8" standalone="no"?>
<svg
   xmlns:dc="http://purl.org/dc/elements/1.1/"
   xmlns:cc="http://creativecommons.org/ns#"
   xmlns:rdf="http://www.w3.org/1999/02/22-rdf-syntax-ns#"
   xmlns:svg="http://www.w3.org/2000/svg"
   xmlns="http://www.w3.org/2000/svg"
   xmlns:sodipodi="http://sodipodi.sourceforge.net/DTD/sodipodi-0.dtd"
   xmlns:inkscape="http://www.inkscape.org/namespaces/inkscape"
   version="1.1"
   id="Capa_1"
   x="0px"
   y="0px"
   width="16"
   height="16"
   viewBox="0 0 15.999999 15.999999"
   xml:space="preserve">
<g
   id="g8"
   style="fill:#808080"
   transform="matrix(0.16467682,0,0,0.16467682,-0.0301627,0.0301587)">
	<g
   id="g6"
   style="fill:#808080">
		<path
   d="M 48.58,0 C 21.793,0 0,21.793 0,48.58 0,75.367 21.793,97.16 48.58,97.16 75.367,97.16 97.16,75.367 97.16,48.58 97.16,21.793 75.367,0 48.58,0 Z m 0,86.823 c -21.087,0 -38.244,-17.155 -38.244,-38.243 0,-21.088 17.157,-38.243 38.244,-38.243 21.087,0 38.244,17.155 38.244,38.243 0,21.088 -17.157,38.243 -38.244,38.243 z"
   id="path2"
   style="fill:#808080"
   inkscape:connector-curvature="0" />
		<path
   d="M 73.898,47.08 H 52.066 V 20.83 c 0,-2.209 -1.791,-4 -4,-4 -2.209,0 -4,1.791 -4,4 v 30.25 c 0,2.209 1.791,4 4,4 h 25.832 c 2.209,0 4,-1.791 4,-4 0,-2.209 -1.791,-4 -4,-4 z"
   id="path4"
   style="fill:#808080"
   inkscape:connector-curvature="0" />
	</g>
</g>
</svg>
