<?xml version="1.0" encoding="UTF-8" standalone="no"?>
<svg
   xmlns:dc="http://purl.org/dc/elements/1.1/"
   xmlns:cc="http://creativecommons.org/ns#"
   xmlns:rdf="http://www.w3.org/1999/02/22-rdf-syntax-ns#"
   xmlns:svg="http://www.w3.org/2000/svg"
   xmlns="http://www.w3.org/2000/svg"
   xmlns:sodipodi="http://sodipodi.sourceforge.net/DTD/sodipodi-0.dtd"
   xmlns:inkscape="http://www.inkscape.org/namespaces/inkscape"
   version="1.1"
   id="Capa_1"
   x="0px"
   y="0px"
   viewBox="0 0 16 16"
   xml:space="preserve"
   width="16"
   height="16">
<path
   d="M 13.44861,11.368437 10.614211,10.128903 C 10.346883,10.011854 10.18073,9.776716 10.18073,9.5151057 V 8.6376219 C 10.24867,8.5649529 10.32018,8.482161 10.394059,8.3908052 10.761672,7.9366208 11.056298,7.4310487 11.270517,6.8857681 11.689164,6.7178496 11.960944,6.3557998 11.960944,5.9470339 V 4.9088983 c 0,-0.2499311 -0.106811,-0.4920763 -0.296703,-0.6812765 V 2.847161 C 11.680861,2.7044174 11.746126,1.8547034 11.04354,1.1537023 10.434114,0.54561437 9.4452043,0.23728811 8.1038135,0.23728811 c -1.3413907,0 -2.3303002,0.30832626 -2.9397264,0.91615469 C 4.4614963,1.8544439 4.5267709,2.7044174 4.5433861,2.847161 V 4.2276218 C 4.3534966,4.416822 4.2466838,4.6589672 4.2466838,4.9088983 v 1.0381356 c 0,0.3158528 0.1640764,0.6104238 0.4441632,0.8068909 0.2717795,0.9413295 0.8405581,1.6506356 1.0393485,1.8782468 v 0.8587981 c 0,0.251229 -0.1566596,0.4816943 -0.4085591,0.6021183 L 2.6747551,11.35598 C 1.8140219,11.766822 1.279661,12.554247 1.279661,13.411747 v 0.840371 c 0,1.231748 4.4638858,1.557204 6.8241525,1.557204 2.3602665,0 6.8241535,-0.325456 6.8241535,-1.557204 v -0.789761 c 0,-0.892277 -0.566998,-1.694756 -1.479357,-2.09392 z m 0.885952,2.883681 c 0,0.352187 -2.199157,1.038135 -6.2307485,1.038135 -4.0315905,0 -6.230748,-0.685948 -6.230748,-1.038135 v -0.840371 c 0,-0.667261 0.4159766,-1.28054 1.0856336,-1.599767 L 5.6055803,10.549089 C 6.0485567,10.337568 6.3236,9.9319177 6.3236,9.4909697 V 8.4479025 L 6.254463,8.3757525 C 6.2473317,8.368229 5.5201251,7.5987079 5.2427076,6.5421454 L 5.2157088,6.4393702 5.1145369,6.3822725 C 4.9427476,6.2852066 4.8400881,6.1224789 4.8400881,5.9470339 V 4.9088983 c 0,-0.1455985 0.070619,-0.2813348 0.1987904,-0.3828125 l 0.097914,-0.077081 V 2.8326271 l -0.00264,-0.034 c -8.875e-4,-0.007 -0.1017609,-0.7264348 0.47621,-1.3031192 0.4916358,-0.4905191 1.3307096,-0.7391525 2.4934863,-0.7391525 1.1586219,0 1.9959172,0.2468167 2.4881462,0.7339619 0.577679,0.571234 0.48214,1.3020815 0.481547,1.3083102 l -0.0026,1.6503762 0.09791,0.077341 c 0.128175,0.1012186 0.19879,0.2369544 0.19879,0.382553 v 1.0381356 c 0,0.2265731 -0.169714,0.424857 -0.421912,0.4928548 l -0.147757,0.039708 -0.04747,0.1284693 C 10.551983,7.1481564 10.269227,7.6469805 9.9096228,8.0907835 9.8215059,8.2000477 9.7357547,8.2968534 9.6612833,8.3708206 l -0.073877,0.073708 v 1.0705771 c 0,0.459375 0.2916572,0.8722933 0.7613377,1.0778453 l 2.834397,1.239533 c 0.710305,0.310662 1.151502,0.9351 1.151502,1.629873 z"
   id="path2"
   style="fill:#808080;stroke-width:0.27749652"
   inkscape:connector-curvature="0" />
<g
   id="g4"
   transform="translate(0,-44)">
</g>
<g
   id="g6"
   transform="translate(0,-44)">
</g>
<g
   id="g8"
   transform="translate(0,-44)">
</g>
<g
   id="g10"
   transform="translate(0,-44)">
</g>
<g
   id="g12"
   transform="translate(0,-44)">
</g>
<g
   id="g14"
   transform="translate(0,-44)">
</g>
<g
   id="g16"
   transform="translate(0,-44)">
</g>
<g
   id="g18"
   transform="translate(0,-44)">
</g>
<g
   id="g20"
   transform="translate(0,-44)">
</g>
<g
   id="g22"
   transform="translate(0,-44)">
</g>
<g
   id="g24"
   transform="translate(0,-44)">
</g>
<g
   id="g26"
   transform="translate(0,-44)">
</g>
<g
   id="g28"
   transform="translate(0,-44)">
</g>
<g
   id="g30"
   transform="translate(0,-44)">
</g>
<g
   id="g32"
   transform="translate(0,-44)">
</g>
</svg>
